<svg width="82" height="82" viewBox="0 0 82 82" fill="none" xmlns="http://www.w3.org/2000/svg">
<path fill-rule="evenodd" clip-rule="evenodd" d="M82 10.25H0V30.75C5.66092 30.75 10.25 35.3391 10.25 41C10.25 46.6609 5.66092 51.25 0 51.25V71.75H82V51.25C76.3389 51.25 71.75 46.6609 71.75 41C71.75 35.3391 76.3389 30.75 82 30.75V10.25ZM41 51.25C46.6609 51.25 51.25 46.6609 51.25 41C51.25 35.3391 46.6609 30.75 41 30.75C35.3391 30.75 30.75 35.3391 30.75 41C30.75 46.6609 35.3391 51.25 41 51.25Z" fill="#007FFF"/>
</svg>
